<?xml version="1.0"?>
<svg xmlns="http://www.w3.org/2000/svg" viewBox="0 0 64 64"><g id="Online_Payment-2" data-name="Online Payment"><path d="M61,51H59V39H57V51H7V18a3,3,0,0,1,3-3h8V13H10a5.006,5.006,0,0,0-5,5V51H3a1,1,0,0,0-1,1v4a3,3,0,0,0,3,3H59a3,3,0,0,0,3-3V52A1,1,0,0,0,61,51ZM35.613,53l-.334,1H28.721l-.334-1ZM60,56a1,1,0,0,1-1,1H5a1,1,0,0,1-1-1V53H26.28l.772,2.316A1,1,0,0,0,28,56h8a1,1,0,0,0,.948-.684L37.72,53H60Z"/><path d="M41,32a7,7,0,1,0-7-7A7.008,7.008,0,0,0,41,32Zm0-12a5,5,0,1,1-5,5A5.006,5.006,0,0,1,41,20Z"/><path d="M59,5H23a3,3,0,0,0-3,3V24h2V16a1,1,0,0,1,1-1H59a1,1,0,0,1,1,1V34a1,1,0,0,1-1,1H35v2H59a3,3,0,0,0,3-3V8A3,3,0,0,0,59,5ZM23,7H59a1,1,0,0,1,1,1V9.184A2.966,2.966,0,0,0,59,9H23a2.966,2.966,0,0,0-1,.184V8A1,1,0,0,1,23,7Zm36,6H23a2.966,2.966,0,0,0-1,.184V12a1,1,0,0,1,1-1H59a1,1,0,0,1,1,1v1.184A2.966,2.966,0,0,0,59,13Z"/><path d="M29,19V17H25a1,1,0,0,0-1,1v4h2V19Z"/><path d="M58,22V18a1,1,0,0,0-1-1H53v2h3v3Z"/><path d="M53,33h4a1,1,0,0,0,1-1V28H56v3H53Z"/><rect x="50" y="24" width="2" height="2"/><rect x="30" y="24" width="2" height="2"/><path d="M13,36A10,10,0,1,0,23,26,10.011,10.011,0,0,0,13,36Zm18,0a8,8,0,1,1-8-8A8.009,8.009,0,0,1,31,36Z"/><path d="M22,30v1.184A2.993,2.993,0,0,0,23,37a1,1,0,1,1-1,1H20a3,3,0,0,0,2,2.816V42h2V40.816A2.993,2.993,0,0,0,23,35a1,1,0,1,1,1-1h2a3,3,0,0,0-2-2.816V30Z"/></g></svg>
