<?xml version="1.0" encoding="iso-8859-1"?>
<!-- Generator: Adobe Illustrator 18.1.1, SVG Export Plug-In . SVG Version: 6.00 Build 0)  -->
<svg version="1.1" id="Capa_1" xmlns="http://www.w3.org/2000/svg" xmlns:xlink="http://www.w3.org/1999/xlink" x="0px" y="0px"
	 viewBox="0 0 591.6 591.6" style="enable-background:new 0 0 591.6 591.6;" xml:space="preserve">
<g>
	<g>
		<path d="M472.26,287.232L199.308,109.956c-3.06-2.04-7.14-2.244-10.404-0.408c-3.264,1.836-5.304,5.304-5.304,8.976v354.552
			c0,3.672,2.04,7.14,5.304,8.976c1.428,0.816,3.264,1.224,4.896,1.224c2.04,0,3.876-0.612,5.508-1.632L472.26,304.368
			c2.856-1.836,4.692-5.1,4.692-8.568S475.116,289.068,472.26,287.232z M204,454.308V137.292L447.984,295.8L204,454.308z"/>
		<path d="M217.872,181.152l171.972,111.792c0.816,0.612,1.836,0.816,2.856,0.816c1.632,0,3.264-0.816,4.284-2.244
			c1.632-2.448,0.816-5.508-1.428-7.14L223.584,172.584c-2.448-1.632-5.508-0.816-7.14,1.428
			C214.812,176.256,215.628,179.52,217.872,181.152z"/>
		<path d="M295.8,0C132.6,0,0,132.6,0,295.8s132.6,295.8,295.8,295.8S591.6,459,591.6,295.8S459,0,295.8,0z M295.8,571.2
			c-151.776,0-275.4-123.624-275.4-275.4S144.024,20.4,295.8,20.4s275.4,123.624,275.4,275.4S447.576,571.2,295.8,571.2z"/>
	</g>
</g>
<g>
</g>
<g>
</g>
<g>
</g>
<g>
</g>
<g>
</g>
<g>
</g>
<g>
</g>
<g>
</g>
<g>
</g>
<g>
</g>
<g>
</g>
<g>
</g>
<g>
</g>
<g>
</g>
<g>
</g>
</svg>
